<svg width="24" height="24" viewBox="0 0 24 24" fill="none" xmlns="http://www.w3.org/2000/svg">
<path d="M23.0223 5.4309H18.3114C18.2629 5.4309 18.2148 5.42131 18.17 5.40268C18.1251 5.38405 18.0844 5.35675 18.0502 5.32234C18.0159 5.28793 17.9888 5.2471 17.9704 5.20218C17.952 5.15727 17.9426 5.10916 17.9428 5.06061C17.9433 4.97127 17.9755 4.885 18.0337 4.81718L21.3937 0.977183C21.4266 0.939462 21.4671 0.90923 21.5127 0.888529C21.5582 0.867828 21.6077 0.857138 21.6577 0.857183C21.8497 0.857183 22.0057 1.0149 22.0057 1.2069V6.9549M15.1108 6.95318H11.048V6.08747C11.0484 5.79129 11.135 5.50163 11.2973 5.25384C11.4595 5.00605 11.6904 4.81085 11.9617 4.69204L14.2246 3.7029C14.5377 3.56656 14.7942 3.32644 14.9509 3.02301C15.1077 2.71958 15.155 2.37139 15.0849 2.03715C15.0148 1.7029 14.8317 1.40303 14.5663 1.18809C14.3009 0.973149 13.9695 0.85628 13.628 0.857183H12.572C12.2569 0.857531 11.9496 0.955442 11.6924 1.13747C11.4351 1.31949 11.2406 1.5767 11.1354 1.87375M12.8068 22.3903C13.6955 22.9626 14.7533 23.2134 15.8043 23.1011C16.8553 22.9888 17.8362 22.5202 18.584 21.7732L19.2354 21.1218C19.5243 20.8297 19.6864 20.4354 19.6864 20.0246C19.6864 19.6138 19.5243 19.2195 19.2354 18.9275L16.4926 16.2018C16.2034 15.9139 15.812 15.7523 15.404 15.7523C14.996 15.7523 14.6046 15.9139 14.3154 16.2018C14.0233 16.4907 13.6291 16.6528 13.2183 16.6528C12.8074 16.6528 12.4132 16.4907 12.1211 16.2018L7.7497 11.8303C7.46076 11.5383 7.29869 11.144 7.29869 10.7332C7.29869 10.3223 7.46076 9.9281 7.7497 9.63604C8.03758 9.3469 8.1992 8.95549 8.1992 8.54747C8.1992 8.13945 8.03758 7.74804 7.7497 7.4589L5.1097 4.71604C4.81764 4.4271 4.42339 4.26504 4.01255 4.26504C3.60172 4.26504 3.20747 4.4271 2.91541 4.71604L2.26398 5.36747C1.50353 6.10467 1.01892 7.08038 0.891004 8.13176C0.763092 9.18313 0.999623 10.2466 1.56112 11.1446C4.55041 15.5825 8.36896 19.401 12.8068 22.3903Z" stroke="#FF4B8B" stroke-width="1.71429" stroke-linecap="round" stroke-linejoin="round"/>
</svg>
